<?xml version="1.0" encoding="UTF-8"?>
<svg xmlns="http://www.w3.org/2000/svg" viewBox="0 0 557.81 295">
  <defs>
    <style>
      .cls-1 {
        isolation: isolate;
      }

      .cls-2 {
        mix-blend-mode: overlay;
      }
    </style>
  </defs>
  <g class="cls-1">
    <g id="Capa_1" data-name="Capa 1">
      <g class="cls-2">
        <g>
          <path d="M264.37,201.49l-110.91-4.08c-2.04-.08-3.81-1.42-4.44-3.36l-25.03-77.73c-.49-1.51-.21-3.15,.75-4.41,.95-1.26,2.47-1.98,4.05-1.92l159.76,5.88c2.68,.1,4.77,2.35,4.67,5.03-.1,2.68-2.35,4.77-5.03,4.67l-152.85-5.62,21.86,67.91,104.68,3.85,54.21-88.49c.91-1.49,2.56-2.38,4.31-2.31l57.32,2.11c2.68,.1,4.77,2.35,4.67,5.03-.1,2.68-2.35,4.77-5.03,4.67l-54.49-2-54.21,88.49c-.92,1.49-2.57,2.38-4.32,2.31Z"/>
          <path d="M363.6,140.69l-42.02-1.55c-2.68-.1-4.77-2.35-4.67-5.03,.1-2.68,2.35-4.77,5.03-4.67l42.02,1.55c2.68,.1,4.77,2.35,4.67,5.03s-2.35,4.77-5.03,4.67Z"/>
          <path d="M347.94,163.96l-42.02-1.55c-2.68-.1-4.77-2.35-4.67-5.03,.1-2.68,2.35-4.77,5.03-4.67l42.02,1.55c2.68,.1,4.77,2.35,4.67,5.03-.1,2.68-2.35,4.77-5.03,4.67Z"/>
          <path d="M174.48,237.82c-9.68-.36-17.26-8.52-16.9-18.2,.36-9.68,8.52-17.26,18.2-16.91,9.68,.36,17.26,8.52,16.9,18.2-.36,9.68-8.52,17.26-18.2,16.9Zm.93-25.41c-4.33-.16-7.99,3.23-8.14,7.57-.16,4.33,3.23,7.98,7.57,8.14,4.33,.16,7.99-3.23,8.14-7.57,.16-4.33-3.23-7.99-7.57-8.14Z"/>
          <path d="M241.9,240.3c-9.68-.36-17.26-8.52-16.9-18.2,.36-9.68,8.52-17.26,18.2-16.91,9.68,.36,17.26,8.52,16.9,18.2-.36,9.68-8.52,17.26-18.2,16.9Zm.93-25.41c-4.33-.16-7.99,3.23-8.14,7.57-.16,4.33,3.23,7.98,7.57,8.14,4.33,.16,7.99-3.23,8.14-7.57,.16-4.33-3.23-7.98-7.57-8.14Z"/>
        </g>
      </g>
    </g>
  </g>
</svg>