<svg xmlns="http://www.w3.org/2000/svg" xmlns:xlink="http://www.w3.org/1999/xlink" width="500" zoomAndPan="magnify" viewBox="0 0 375 374.999991" height="500" preserveAspectRatio="xMidYMid meet" version="1.0"><path fill="#519872" d="M 116.382812 279.945312 C 116.382812 291.878906 126.058594 301.625 138.066406 301.625 C 150 301.625 159.746094 291.949219 159.746094 279.945312 C 159.746094 268.007812 150.070312 258.261719 138.066406 258.261719 C 126.058594 258.261719 116.382812 268.007812 116.382812 279.945312 Z M 116.382812 279.945312 " fill-opacity="1" fill-rule="nonzero"/><path fill="#519872" d="M 214.902344 279.945312 C 214.902344 291.878906 224.578125 301.625 236.582031 301.625 C 248.515625 301.625 258.261719 291.949219 258.261719 279.945312 C 258.261719 268.007812 248.585938 258.261719 236.582031 258.261719 C 224.578125 258.261719 214.902344 268.007812 214.902344 279.945312 Z M 214.902344 279.945312 " fill-opacity="1" fill-rule="nonzero"/><path fill="#519872" d="M 187.289062 0.140625 C 148.234375 0.140625 110.875 12.003906 79.097656 34.464844 C 74.292969 37.851562 73.164062 44.492188 76.554688 49.222656 C 79.945312 53.953125 86.582031 55.15625 91.3125 51.765625 C 119.492188 31.851562 152.613281 21.328125 187.21875 21.328125 C 278.882812 21.328125 353.53125 95.902344 353.53125 187.640625 C 353.53125 279.378906 278.953125 353.882812 187.289062 353.882812 C 95.621094 353.882812 20.972656 279.308594 20.972656 187.640625 C 20.972656 156.566406 29.449219 126.554688 45.691406 100.421875 L 62.289062 111.652344 C 71.046875 118.289062 77.1875 127.894531 79.519531 138.628906 L 91.949219 196.398438 L 95.972656 215.183594 C 99.648438 232.132812 114.902344 244.492188 132.203125 244.492188 L 245.832031 244.492188 C 260.945312 244.492188 274.152344 234.25 277.964844 219.632812 L 299.011719 137.996094 C 301.058594 129.945312 299.363281 121.539062 294.28125 114.972656 C 289.195312 108.402344 281.496094 104.589844 273.164062 104.589844 L 137.640625 104.589844 C 131.78125 104.589844 127.046875 109.320312 127.046875 115.183594 C 127.046875 121.046875 131.78125 125.777344 137.640625 125.777344 L 273.09375 125.777344 C 275.421875 125.777344 276.835938 127.117188 277.472656 127.894531 C 278.105469 128.671875 279.023438 130.367188 278.460938 132.628906 L 257.414062 214.265625 C 256.074219 219.5625 251.269531 223.234375 245.832031 223.234375 L 132.203125 223.234375 C 124.789062 223.234375 118.21875 217.9375 116.667969 210.664062 L 115.394531 204.800781 L 220.972656 204.800781 C 226.835938 204.800781 231.566406 200.070312 231.566406 194.210938 C 231.566406 188.347656 226.835938 183.617188 220.972656 183.617188 L 110.875 183.617188 L 107.132812 166.171875 L 231.144531 166.171875 C 237.003906 166.171875 241.738281 161.441406 241.738281 155.578125 C 241.738281 149.71875 237.003906 144.984375 231.144531 144.984375 L 102.613281 144.984375 L 100.28125 134.109375 C 96.894531 118.363281 87.996094 104.378906 74.71875 94.351562 L 48.800781 76.835938 C 43.996094 73.585938 37.570312 74.789062 34.179688 79.519531 C 11.722656 111.230469 -0.140625 148.65625 -0.140625 187.640625 C -0.140625 291.03125 83.96875 375.140625 187.359375 375.140625 C 290.75 375.140625 374.859375 291.03125 374.859375 187.640625 C 374.859375 84.25 290.679688 0.140625 187.289062 0.140625 Z M 187.289062 0.140625 " fill-opacity="1" fill-rule="nonzero"/></svg>